<svg xmlns="http://www.w3.org/2000/svg" viewBox="0 0 360 210" role="img" aria-label="Forbidden City corner tower silhouette">
  <g fill="#000">
    <rect x="0" y="196" width="360" height="14"/>

    <rect x="70" y="182" width="22" height="14" opacity="0.78"/>
    <rect x="270" y="182" width="20" height="14" opacity="0.78"/>

    <rect x="126" y="156" width="108" height="40"/>

    <polygon points="112,156 248,156 228,142 132,142"/>
    <rect x="118" y="136" width="124" height="8"/>

    <polygon points="126,136 234,136 218,124 142,124"/>
    <rect x="134" y="118" width="92" height="8"/>

    <polygon points="142,118 218,118 206,108 154,108"/>
    <rect x="148" y="102" width="64" height="8"/>

    <polygon points="154,102 206,102 198,94 162,94"/>
    <rect x="160" y="88" width="40" height="7"/>

    <polygon points="180,68 184,88 176,88"/>

    <rect x="142" y="164" width="8" height="24" opacity="0.62"/>
    <rect x="160" y="164" width="8" height="24" opacity="0.62"/>
    <rect x="178" y="164" width="8" height="24" opacity="0.62"/>
    <rect x="196" y="164" width="8" height="24" opacity="0.62"/>
    <rect x="214" y="164" width="8" height="24" opacity="0.62"/>
  </g>
</svg>
