<?xml version="1.0" encoding="UTF-8" standalone="no"?>
<!-- Created with Inkscape (http://www.inkscape.org/) -->
<svg
   xmlns:dc="http://purl.org/dc/elements/1.1/"
   xmlns:cc="http://creativecommons.org/ns#"
   xmlns:rdf="http://www.w3.org/1999/02/22-rdf-syntax-ns#"
   xmlns:svg="http://www.w3.org/2000/svg"
   xmlns="http://www.w3.org/2000/svg"
   xmlns:sodipodi="http://sodipodi.sourceforge.net/DTD/sodipodi-0.dtd"
   xmlns:inkscape="http://www.inkscape.org/namespaces/inkscape"
   width="117.19774"
   height="792.42432"
   id="svg2634"
   sodipodi:version="0.32"
   inkscape:version="0.46"
   version="1.0"
   sodipodi:docname="Guangzhou-outline.svg"
   inkscape:output_extension="org.inkscape.output.svg.inkscape">
  <defs
     id="defs2636">
    <inkscape:perspective
       sodipodi:type="inkscape:persp3d"
       inkscape:vp_x="0 : 526.18109 : 1"
       inkscape:vp_y="0 : 1000 : 0"
       inkscape:vp_z="744.09448 : 526.18109 : 1"
       inkscape:persp3d-origin="372.04724 : 350.78739 : 1"
       id="perspective2642" />
  </defs>
  <sodipodi:namedview
     id="base"
     pagecolor="#ffffff"
     bordercolor="#666666"
     borderopacity="1.0"
     inkscape:pageopacity="0.0"
     inkscape:pageshadow="2"
     inkscape:zoom="0.97321263"
     inkscape:cx="177.82066"
     inkscape:cy="508.12089"
     inkscape:document-units="px"
     inkscape:current-layer="layer1"
     showgrid="false"
     inkscape:window-width="1366"
     inkscape:window-height="749"
     inkscape:window-x="-4"
     inkscape:window-y="-4" />
  <metadata
     id="metadata2639">
    <rdf:RDF>
      <cc:Work
         rdf:about="">
        <dc:format>image/svg+xml</dc:format>
        <dc:type
           rdf:resource="http://purl.org/dc/dcmitype/StillImage" />
      </cc:Work>
    </rdf:RDF>
  </metadata>
  <g
     inkscape:label="Ebene 1"
     inkscape:groupmode="layer"
     id="layer1"
     transform="translate(-212.26959,-50.056019)">
    <path
       style="fill:#000000;fill-opacity:1;fill-rule:evenodd;stroke:none;stroke-width:1px;stroke-linecap:butt;stroke-linejoin:miter;stroke-opacity:1"
       d="M 270.59178,84.801516 C 269.94175,84.934641 269.48505,85.526447 269.48505,86.215672 C 269.48505,86.981736 270.07994,87.626808 270.83771,87.66057 L 270.68401,94.1165 L 269.94618,110.19484 C 268.96663,110.47724 268.25535,111.18672 268.25535,112.07013 C 268.25534,112.90434 268.898,113.63027 269.79247,113.94543 L 268.62426,139.67692 C 267.84646,140.18782 267.33307,140.95961 267.33307,141.82889 C 267.33307,142.63608 267.75588,143.34903 268.4398,143.8579 L 267.54827,163.22569 C 265.99713,163.6386 264.96591,164.3697 264.9659,165.16247 C 264.9659,165.92315 265.91726,166.58888 267.36382,167.00702 L 266.31856,190.80173 C 264.82683,191.22315 263.85916,191.85584 263.85916,192.55406 C 263.85916,193.22513 264.74156,193.79406 266.13411,194.21415 L 264.87367,222.43578 C 254.06418,223.14118 244.96658,225.94766 240.12594,229.75251 C 240.1133,229.76243 240.10778,229.77329 240.0952,229.78325 C 236.84349,231.43556 235.15523,234.38765 236.86723,240.14348 C 255.91162,429.21006 242.94592,619.93468 217.40721,807.74266 C 235.21553,807.74268 253.02834,807.74266 270.83771,807.74266 C 270.85821,807.74266 270.87871,807.74266 270.89921,807.74266 C 288.70858,807.74266 306.52139,807.74268 324.32971,807.74266 C 298.791,619.93468 285.82531,429.21006 304.86969,240.14348 C 306.58169,234.38765 304.89343,231.43556 301.64172,229.78325 C 301.62914,229.77329 301.62363,229.76243 301.61098,229.75251 C 296.77034,225.94766 287.67274,223.14118 276.86325,222.43578 L 275.60281,194.21415 C 276.99536,193.79406 277.87776,193.22513 277.87776,192.55406 C 277.87776,191.85584 276.91009,191.22315 275.41836,190.80173 L 274.3731,167.00702 C 275.81966,166.58888 276.77102,165.92315 276.77102,165.16247 C 276.77101,164.3697 275.73979,163.6386 274.18865,163.22569 L 273.29712,143.8579 C 273.98104,143.34903 274.40385,142.63609 274.40385,141.82889 C 274.40385,140.95961 273.89046,140.18783 273.11266,139.67692 L 271.94445,113.94543 C 272.83892,113.63027 273.48158,112.90434 273.48157,112.07013 C 273.48157,111.18672 272.77029,110.47724 271.79074,110.19484 L 271.05291,94.1165 L 270.89921,87.66057 C 271.65698,87.626808 272.25187,86.981736 272.25187,86.215672 C 272.25187,85.526447 271.79517,84.934641 271.14514,84.801516 C 271.07085,84.786295 270.98231,84.797254 270.89921,84.801516 C 270.87951,84.801516 270.8585,84.802581 270.83771,84.801516 C 270.75461,84.797254 270.66607,84.786295 270.59178,84.801516 z"
       id="path4174" />
  </g>
</svg>
