<?xml version="1.0" encoding="UTF-8" standalone="no"?>
<!-- Created with Inkscape (http://www.inkscape.org/) -->
<svg
   xmlns:dc="http://purl.org/dc/elements/1.1/"
   xmlns:cc="http://creativecommons.org/ns#"
   xmlns:rdf="http://www.w3.org/1999/02/22-rdf-syntax-ns#"
   xmlns:svg="http://www.w3.org/2000/svg"
   xmlns="http://www.w3.org/2000/svg"
   xmlns:sodipodi="http://sodipodi.sourceforge.net/DTD/sodipodi-0.dtd"
   xmlns:inkscape="http://www.inkscape.org/namespaces/inkscape"
   width="273.3829"
   height="598.966"
   id="svg2575"
   sodipodi:version="0.32"
   inkscape:version="0.46"
   version="1.0"
   sodipodi:docname="OrientalPearl-outline.svg"
   inkscape:output_extension="org.inkscape.output.svg.inkscape">
  <defs
     id="defs2577">
    <inkscape:perspective
       sodipodi:type="inkscape:persp3d"
       inkscape:vp_x="0 : 526.18109 : 1"
       inkscape:vp_y="0 : 1000 : 0"
       inkscape:vp_z="744.09448 : 526.18109 : 1"
       inkscape:persp3d-origin="372.04724 : 350.78739 : 1"
       id="perspective2583" />
  </defs>
  <sodipodi:namedview
     id="base"
     pagecolor="#ffffff"
     bordercolor="#666666"
     borderopacity="1.0"
     inkscape:pageopacity="0.0"
     inkscape:pageshadow="2"
     inkscape:zoom="0.35"
     inkscape:cx="350"
     inkscape:cy="520"
     inkscape:document-units="px"
     inkscape:current-layer="layer1"
     showgrid="false"
     inkscape:window-width="640"
     inkscape:window-height="675"
     inkscape:window-x="132"
     inkscape:window-y="66" />
  <metadata
     id="metadata2580">
    <rdf:RDF>
      <cc:Work
         rdf:about="">
        <dc:format>image/svg+xml</dc:format>
        <dc:type
           rdf:resource="http://purl.org/dc/dcmitype/StillImage" />
      </cc:Work>
    </rdf:RDF>
  </metadata>
  <g
     inkscape:label="Ebene 1"
     inkscape:groupmode="layer"
     id="layer1"
     transform="translate(-213.30855,-209.95585)">
    <path
       id="path4168"
       style="fill:#000000;fill-opacity:1;fill-rule:evenodd;stroke:none;stroke-width:1px;stroke-linecap:butt;stroke-linejoin:miter;stroke-opacity:1"
       d="M 346.61043,238.94342 L 346.61043,298.95989 L 345.46142,298.95989 L 345.46142,301.48771 L 346.61043,301.48771 L 346.61043,303.90063 L 345.42312,303.90063 L 345.42312,305.12622 L 346.61043,305.12622 L 346.61043,306.27524 L 345.42312,306.27524 L 345.42312,307.50084 L 346.61043,307.50084 L 346.61043,308.68815 L 345.42312,308.68815 L 345.42312,309.91376 L 346.61043,309.91376 L 346.61043,311.17766 L 345.42312,311.17766 L 345.42312,312.40328 L 346.61043,312.40328 L 346.61043,314.93109 L 345.42312,314.93109 L 345.42312,316.1567 L 346.61043,316.1567 L 346.61043,317.38229 L 345.42312,317.38229 L 345.42312,318.64621 L 346.61043,318.64621 L 346.61043,319.87182 L 345.42312,319.87182 L 345.42312,322.24644 L 346.61043,322.24644 L 346.61043,323.51034 L 345.42312,323.51034 L 345.42312,324.77424 L 346.61043,324.77424 L 346.61043,325.99986 L 345.42312,325.99986 L 345.42312,327.22547 L 346.61043,327.22547 L 346.61043,328.37447 L 345.42312,328.37447 L 345.42312,329.60008 L 346.61043,329.60008 L 346.61043,330.74908 L 345.42312,330.74908 L 345.42312,331.9747 L 346.61043,331.9747 L 346.61043,334.54082 L 342.93362,334.54082 L 342.93362,336.83883 L 345.46142,336.83883 L 345.46142,368.81953 L 341.8229,368.81953 L 341.8229,372.53465 L 343.08682,372.53465 L 343.08682,373.60705 C 339.20047,375.04039 336.46088,378.38993 336.46086,382.30121 C 336.46086,385.77498 338.61702,388.78712 341.8229,390.42086 L 341.8229,392.14437 L 341.8229,394.90198 L 341.8229,396.89359 L 341.8229,398.2724 L 341.8229,400.68532 L 341.8229,419.06944 L 339.44828,419.06944 L 339.44828,421.59726 L 341.8229,421.59726 L 341.8229,437.64506 C 329.88674,440.26314 320.91093,451.25249 320.91097,464.41691 C 320.91097,473.79075 325.4765,482.07948 332.40105,487.01405 L 332.40105,648.02825 C 324.50778,652.20345 318.90799,659.75261 317.77035,668.59548 L 320.10667,668.59548 L 320.10667,675.87252 L 317.84696,675.87252 C 319.07278,683.83588 323.95556,690.66451 330.83074,694.86944 L 298.69684,764.34607 L 300.61184,765.15037 C 284.41416,761.63426 288.25757,767.47065 285.29175,770.1294 C 274.83577,770.47412 269.71453,772.59704 264.95433,774.84033 C 243.9155,773.79371 236.57489,777.31317 226.5392,779.93427 L 473.46081,779.93427 C 454.53957,772.46224 429.95553,777.02588 412.18044,769.4017 C 413.71019,764.24587 409.22275,764.12973 405.13319,763.65667 L 385.37027,731.10146 L 385.71497,724.82023 L 382.07645,721.5647 L 380.16144,721.986 L 363.99874,693.83532 C 370.02754,689.58799 374.24519,683.20254 375.37391,675.87252 L 373.0376,675.87252 L 373.0376,668.59548 L 375.45051,668.59548 C 374.31287,659.75263 368.71308,652.20345 360.81982,648.02825 L 360.81982,487.89496 C 368.49513,483.10801 373.65042,474.38516 373.6504,464.41691 C 373.6504,451.69763 365.28855,441.02254 353.96408,437.95145 L 353.96408,421.59726 L 355.26628,421.59726 L 355.26628,419.06944 L 353.96408,419.06944 L 353.96408,400.68532 L 354.04067,400.68532 L 354.04067,398.2724 L 353.96408,398.2724 L 353.96408,396.89359 L 354.04067,396.89359 L 354.04067,392.14437 L 352.77677,392.14437 L 352.77677,390.42086 C 355.96039,388.78477 358.10052,385.76783 358.1005,382.30121 C 358.1005,378.87556 355.98547,375.87982 352.85337,374.21985 L 352.85337,372.53465 L 354.07898,372.53465 L 354.07898,368.81953 L 350.24895,368.81953 L 350.24895,336.83883 L 352.70017,336.83883 L 352.70017,334.54082 L 348.94675,334.54082 L 348.94675,331.9747 L 350.24895,331.9747 L 350.24895,330.74908 L 348.94675,330.74908 L 348.94675,329.60008 L 350.24895,329.60008 L 350.24895,328.37447 L 348.94675,328.37447 L 348.94675,327.22547 L 350.24895,327.22547 L 350.24895,325.99986 L 348.94675,325.99986 L 348.94675,324.77424 L 350.24895,324.77424 L 350.24895,323.51034 L 348.94675,323.51034 L 348.94675,322.24644 L 350.24895,322.24644 L 350.24895,319.87182 L 348.94675,319.87182 L 348.94675,318.64621 L 350.24895,318.64621 L 350.24895,317.38229 L 348.94675,317.38229 L 348.94675,316.1567 L 350.24895,316.1567 L 350.24895,314.93109 L 348.94675,314.93109 L 348.94675,312.40328 L 350.24895,312.40328 L 350.24895,311.17766 L 348.94675,311.17766 L 348.94675,309.91376 L 350.24895,309.91376 L 350.24895,308.68815 L 348.94675,308.68815 L 348.94675,307.50084 L 350.24895,307.50084 L 350.24895,306.27524 L 348.94675,306.27524 L 348.94675,305.12622 L 350.24895,305.12622 L 350.24895,303.90063 L 348.94675,303.90063 L 348.94675,301.48771 L 350.21066,301.48771 L 350.21066,298.95989 L 348.94675,298.95989 L 348.94675,238.94342 L 346.61043,238.94342 z M 345.42312,396.89359 L 346.76364,396.89359 L 346.76364,398.2724 L 345.42312,398.2724 L 345.42312,396.89359 z M 350.36386,396.89359 L 351.70436,396.89359 L 351.70436,398.2724 L 350.36386,398.2724 L 350.36386,396.89359 z M 345.42312,400.68532 L 346.76364,400.68532 L 346.76364,401.98753 L 345.42312,401.98753 L 345.42312,400.68532 z M 350.36386,400.68532 L 351.70436,400.68532 L 351.70436,401.98753 L 350.36386,401.98753 L 350.36386,400.68532 z M 345.42312,404.40044 L 346.76364,404.40044 L 346.76364,405.58776 L 345.42312,405.58776 L 345.42312,404.40044 z M 350.36386,404.40044 L 351.70436,404.40044 L 351.70436,405.58776 L 350.36386,405.58776 L 350.36386,404.40044 z M 345.42312,408.00067 L 346.76364,408.00067 L 346.76364,409.26457 L 345.42312,409.26457 L 345.42312,408.00067 z M 350.36386,408.00067 L 351.70436,408.00067 L 351.70436,409.26457 L 350.36386,409.26457 L 350.36386,408.00067 z M 345.42312,411.67748 L 346.76364,411.67748 L 346.76364,413.018 L 345.42312,413.018 L 345.42312,411.67748 z M 350.36386,411.67748 L 351.70436,411.67748 L 351.70436,413.018 L 350.36386,413.018 L 350.36386,411.67748 z M 345.42312,414.1287 L 346.76364,414.1287 L 346.76364,415.43091 L 345.42312,415.43091 L 345.42312,414.1287 z M 350.36386,414.1287 L 351.70436,414.1287 L 351.70436,415.43091 L 350.36386,415.43091 L 350.36386,414.1287 z M 345.42312,417.80552 L 346.76364,417.80552 L 346.76364,419.06944 L 345.42312,419.06944 L 345.42312,417.80552 z M 350.36386,417.80552 L 351.70436,417.80552 L 351.70436,419.06944 L 350.36386,419.06944 L 350.36386,417.80552 z M 342.55061,491.34198 C 343.65662,491.55087 344.77166,491.70272 345.92103,491.76328 L 345.92103,504.63217 L 342.55061,504.63217 L 342.55061,491.34198 z M 342.55061,520.87146 L 345.92103,520.87146 L 345.92103,528.95281 L 342.55061,528.95281 L 342.55061,520.87146 z M 342.55061,545.19212 L 345.92103,545.19212 L 345.92103,556.68219 L 342.55061,556.68219 L 342.55061,545.19212 z M 342.55061,572.88319 L 345.92103,572.88319 L 345.92103,581.00283 L 342.55061,581.00283 L 342.55061,572.88319 z M 342.55061,597.24214 L 345.92103,597.24214 L 345.92103,606.0129 L 342.55061,606.0129 L 342.55061,597.24214 z M 342.55061,622.25219 L 345.92103,622.25219 L 345.92103,632.36346 L 342.55061,632.36346 L 342.55061,622.25219 z M 361.47093,705.89992 L 372.4631,725.24153 L 373.0376,732.05897 L 361.47093,740.29352 L 361.47093,705.89992 z M 331.74993,714.93877 L 331.74993,735.3911 L 325.81341,727.19484 L 331.74993,714.93877 z M 377.78683,734.66339 L 391.95792,759.67344 L 391.88131,759.63514 C 369.49553,761.02357 373.24598,753.97304 361.47093,754.84761 L 361.47093,753.239 L 377.78683,734.66339 z M 321.83018,735.46769 L 331.74993,748.98768 L 331.74993,755.23061 L 315.35744,755.61362 L 308.84641,762.50766 L 308.76979,762.54596 L 321.83018,735.46769 z" />
  </g>
</svg>
